<svg width="204" height="175" viewBox="0 0 204 175" fill="none" xmlns="http://www.w3.org/2000/svg">
<path d="M162.694 7H43.7188C42.3386 7 41.056 7.71146 40.3253 8.88229L1.69202 70.7887C0.702531 72.3743 0.942918 74.4337 2.27098 75.7487L99.1786 171.706C100.74 173.253 103.257 173.249 104.815 171.699L201.316 75.6732C202.603 74.3923 202.866 72.4052 201.956 70.8336L166.156 8.99585C165.44 7.76059 164.121 7 162.694 7Z" fill="#4CB0B2"/>
<path d="M107.5 56.5C107.5 56.644 107.612 57.1067 108.614 57.7914C109.568 58.4426 111.045 59.0886 113.006 59.6551C116.908 60.7824 122.387 61.5 128.5 61.5C134.613 61.5 140.092 60.7824 143.994 59.6551C145.955 59.0886 147.432 58.4426 148.386 57.7914C149.388 57.1067 149.5 56.644 149.5 56.5C149.5 56.356 149.388 55.8933 148.386 55.2086C147.432 54.5574 145.955 53.9114 143.994 53.3449C140.092 52.2176 134.613 51.5 128.5 51.5C122.387 51.5 116.908 52.2176 113.006 53.3449C111.045 53.9114 109.568 54.5574 108.614 55.2086C107.612 55.8933 107.5 56.356 107.5 56.5Z" stroke="white" stroke-width="3"/>
<path d="M55.5 96.5C55.5 96.644 55.6117 97.1067 56.6142 97.7914C57.5675 98.4426 59.0454 99.0886 61.0064 99.6551C64.9083 100.782 70.3866 101.5 76.5 101.5C82.6134 101.5 88.0917 100.782 91.9936 99.6551C93.9546 99.0886 95.4325 98.4426 96.3858 97.7914C97.3883 97.1067 97.5 96.644 97.5 96.5C97.5 96.356 97.3883 95.8933 96.3858 95.2086C95.4325 94.5574 93.9546 93.9114 91.9936 93.3449C88.0917 92.2176 82.6134 91.5 76.5 91.5C70.3866 91.5 64.9083 92.2176 61.0064 93.3449C59.0454 93.9114 57.5675 94.5574 56.6142 95.2086C55.6117 95.8933 55.5 96.356 55.5 96.5Z" stroke="white" stroke-width="3"/>
<path d="M120.311 57.5L120.216 56.6063C119.821 52.9113 118.178 50.0853 115.272 48.0458L115.268 48.0431C112.361 45.9828 108.521 44.9091 103.665 44.9091C100.246 44.9091 97.3702 45.4253 95.0079 46.4214C92.6241 47.4266 90.8589 48.7651 89.653 50.4095C88.4485 52.052 87.83 53.9218 87.8011 56.052C87.8021 57.8299 88.2031 59.3195 88.9664 60.5594C89.7901 61.8478 90.9077 62.957 92.3385 63.8839C93.815 64.8097 95.4582 65.5958 97.2719 66.2394C99.1175 66.8943 100.977 67.4447 102.851 67.8908L102.862 67.8934L102.862 67.8935L111.581 70.0733C115.149 70.9043 118.581 72.0278 121.876 73.4443M120.311 57.5L121.483 74.3636M120.311 57.5H121.21H137.437H138.455L138.437 56.4827C138.343 51.0532 136.817 46.2195 133.846 42.0151C130.885 37.7946 126.815 34.5201 121.673 32.182C116.548 29.8077 110.612 28.6364 103.892 28.6364C97.2588 28.6364 91.2839 29.809 85.9861 32.177C80.6916 34.5132 76.4702 37.8155 73.3563 42.0933L73.3563 42.0933L73.3535 42.0972C70.2511 46.4024 68.7102 51.4139 68.7102 57.0909C68.7102 64.0033 71.0159 69.6331 75.6731 73.8756L75.6785 73.8804C80.2848 78.0167 86.5051 81.062 94.279 83.0593C94.2792 83.0594 94.2794 83.0594 94.2796 83.0594L104.87 85.7866L104.873 85.7873C108.166 86.6256 111.021 87.579 113.445 88.6429L113.451 88.6458L113.458 88.6487C115.871 89.6662 117.686 90.9202 118.955 92.3827L118.955 92.3828L118.961 92.3898C120.17 93.7565 120.817 95.5103 120.847 97.7279C120.816 100.179 120.083 102.291 118.654 104.106C117.205 105.915 115.177 107.366 112.521 108.435C109.906 109.469 106.824 110 103.256 110C99.8415 110 96.7804 109.485 94.0596 108.472M120.311 57.5L94.0596 108.472M121.876 73.4443C121.877 73.4445 121.877 73.4447 121.878 73.4449L121.483 74.3636M121.876 73.4443C121.876 73.4441 121.875 73.4438 121.875 73.4436L121.483 74.3636M121.876 73.4443C125.23 74.8727 128.236 76.6779 130.889 78.8627M121.483 74.3636C124.756 75.7576 127.68 77.5151 130.256 79.6364M130.889 78.8627C130.888 78.862 130.888 78.8614 130.887 78.8608L130.256 79.6364M130.889 78.8627C133.603 81.0722 135.752 83.7429 137.33 86.8674C138.929 90.0323 139.71 93.7076 139.71 97.8636C139.71 103.498 138.267 108.499 135.359 112.83L135.357 112.833C132.448 117.133 128.259 120.472 122.842 122.869L122.84 122.87C117.438 125.243 110.945 126.409 103.392 126.409C96.0489 126.409 89.6235 125.273 84.1408 122.967L84.1389 122.966C78.6798 120.658 74.3718 117.272 71.2535 112.799L71.2508 112.795C68.1551 108.31 66.5049 102.875 66.2564 96.5392L66.2157 95.5H67.2557H83.8466H84.7746L84.8438 96.4254C85.0736 99.4992 86.0142 101.991 87.621 103.958C89.2572 105.961 91.3935 107.468 94.0596 108.472M130.889 78.8627C130.89 78.8633 130.891 78.8638 130.891 78.8644L130.256 79.6364M130.256 79.6364L94.0596 108.472" fill="white" stroke="#4CB0B2" stroke-width="2"/>
</svg>
