<svg width="161" height="161" viewBox="0 0 161 161" fill="none" xmlns="http://www.w3.org/2000/svg">
<circle cx="80.5" cy="80.5" r="80.5" fill="#4CB0B2"/>
<path d="M112.875 37.0917H49.7044C46.9446 37.0917 44.3798 38.5141 42.9183 40.855L24.3864 70.5386C22.4062 73.7103 22.8872 77.8307 25.5447 80.461L75.0046 129.416C78.1275 132.507 83.1588 132.501 86.2741 129.402L135.629 80.3099C138.205 77.748 138.731 73.7721 136.91 70.6285L119.798 41.0822C118.367 38.6123 115.729 37.0917 112.875 37.0917Z" fill="white"/>
<path d="M91.6238 66.0258C91.3758 63.7054 90.3303 61.8987 88.4874 60.6056C86.6622 59.3126 84.2877 58.666 81.3639 58.666C79.3083 58.666 77.5451 58.976 76.0744 59.596C74.6036 60.2159 73.4784 61.0573 72.6987 62.1201C71.919 63.1828 71.5203 64.3962 71.5026 65.7601C71.5026 66.8937 71.7595 67.8768 72.2734 68.7093C72.805 69.5418 73.5227 70.2503 74.4264 70.8348C75.3301 71.4016 76.3313 71.8799 77.43 72.2696C78.5286 72.6593 79.6361 72.987 80.7525 73.2527L85.8559 74.528C87.9115 75.0062 89.8873 75.6528 91.7833 76.4676C93.6971 77.2823 95.4071 78.3097 96.9133 79.5496C98.4373 80.7895 99.6422 82.2863 100.528 84.0398C101.414 85.7934 101.857 87.8481 101.857 90.2039C101.857 93.3923 101.042 96.1998 99.4119 98.6264C97.7816 101.035 95.4248 102.922 92.3415 104.286C89.2759 105.632 85.5635 106.305 81.2044 106.305C76.9692 106.305 73.2923 105.65 70.1735 104.339C67.0725 103.028 64.6448 101.115 62.8905 98.5999C61.154 96.0846 60.2148 93.0203 60.073 89.4069H69.7748C69.9166 91.3021 70.5014 92.8786 71.5291 94.1362C72.5569 95.3938 73.8948 96.3326 75.5428 96.9526C77.2085 97.5725 79.0691 97.8825 81.1246 97.8825C83.2688 97.8825 85.1471 97.5637 86.7597 96.926C88.3899 96.2706 89.6658 95.3673 90.5872 94.2159C91.5087 93.0469 91.9782 91.683 91.996 90.1242C91.9782 88.7072 91.5618 87.5381 90.7467 86.6171C89.9316 85.6783 88.7886 84.8989 87.3178 84.279C85.8648 83.6413 84.1636 83.0745 82.2144 82.5785L76.0212 80.9844C71.538 79.833 67.994 78.0883 65.3891 75.7502C62.8019 73.3944 61.5084 70.268 61.5084 66.3712C61.5084 63.1651 62.3767 60.3576 64.1132 57.9487C65.8675 55.5397 68.2509 53.671 71.2633 52.3425C74.2758 50.9963 77.6869 50.3232 81.4968 50.3232C85.3598 50.3232 88.7443 50.9963 91.6504 52.3425C94.5743 53.671 96.869 55.522 98.5347 57.8955C100.2 60.2513 101.06 62.9614 101.113 66.0258H91.6238Z" fill="#4CB0B2"/>
</svg>
